# xmcd CD database file
#
# Track frame offsets:
#	150
#	12073
#	24491
#	42947
#	58729
#	71772
#	82762
#	93105
#	105814
#	117222
#	129376
#	140734
#	154054
#	172821
#	183929
#	195113
#	205017
#	213781
#	220988
#	228084
#	235507
#
# Disc length: 3318 seconds
#
# Revision: 0
# Processed by: cddbd v1.5.2PL0 Copyright (c) Steve Scherf et al.
# Submitted via: CDex 1.70beta2
#
DISCID=fb0cf415
DTITLE=Alf Wager Trio - ALF WAGER TRIO Montreaux’issa
DYEAR=2006
DGENRE=Jazz
TTITLE0=Ain't misbehavin'
TTITLE1=I can't give you anything but love
TTITLE2=Sweet Lorraine
TTITLE3=What is this thing called love?
TTITLE4=Moonlight and shadows
TTITLE5=My foolish heart
TTITLE6=Do you know what it means to Miss New Orleans?
TTITLE7=Sag' beim Abschield leise servus
TTITLE8=Bei dir war es immer so schön
TTITLE9=Fillette, La
TTITLE10=It's a sin to tell a lie
TTITLE11=Vie en rose, La
TTITLE12=Taking a chance on love
TTITLE13=My melancholy baby
TTITLE14=Rosetta
TTITLE15=Mellangård
TTITLE16=I can't get started
TTITLE17=House built for two
TTITLE18=Music, maestro, please
TTITLE19=Polka dots and moonbeams
TTITLE20=Sulle salaisuuden kertoa mä voisin
EXTD=YEAR: 2006
EXTT0=
EXTT1=
EXTT2=
EXTT3=
EXTT4=
EXTT5=
EXTT6=
EXTT7=
EXTT8=
EXTT9=
EXTT10=
EXTT11=
EXTT12=
EXTT13=
EXTT14=
EXTT15=
EXTT16=
EXTT17=
EXTT18=
EXTT19=
EXTT20=
PLAYORDER=
